<?xml version="1.0" encoding="UTF-8"?><svg id="Layer_2" xmlns="http://www.w3.org/2000/svg" viewBox="0 0 229.73 229.73"><defs><style>.cls-1{fill:#0c2e40;fill-rule:evenodd;}</style></defs><g id="Camada_1"><path class="cls-1" d="M143.58,28.71h-57.42V14.4h57.42v14.31Zm86.15,14.4V201.01c0,15.9-12.88,28.72-28.7,28.72H28.72c-15.9,0-28.72-12.82-28.72-28.72V43.12C0,27.21,12.82,14.4,28.72,14.4v14.31c-7.94,0-14.39,6.51-14.39,14.4v28.72H215.33v-28.72c0-7.89-6.41-14.4-14.31-14.4V14.4c15.82,0,28.7,12.81,28.7,28.72h0ZM57.42,179.5H14.33v21.51c0,7.96,6.45,14.41,14.39,14.41h28.7v-35.92Zm0-43.07H14.33v28.7H57.42v-28.7Zm0-50.29H14.33v35.91H57.42v-35.91Zm50.26,93.35h-35.91v35.92h35.91v-35.92Zm0-43.07h-35.91v28.7h35.91v-28.7Zm0-50.29h-35.91v35.91h35.91v-35.91Zm50.24,93.35h-35.85v35.92h35.85v-35.92Zm0-43.07h-35.85v28.7h35.85v-28.7Zm0-50.29h-35.85v35.91h35.85v-35.91Zm57.42,93.35h-43.02v35.92h28.72c7.89,0,14.31-6.46,14.31-14.41v-21.51Zm0-43.07h-43.02v28.7h43.02v-28.7Zm0-50.29h-43.02v35.91h43.02v-35.91ZM50.24,43.12h14.39c3.98,0,7.14-3.22,7.14-7.2V7.19c0-3.96-3.15-7.19-7.14-7.19h-14.39c-3.95,0-7.21,3.23-7.21,7.19v28.72c0,3.98,3.26,7.2,7.21,7.2h0Zm114.88,0h14.34c3.95,0,7.16-3.22,7.16-7.2V7.19c0-3.96-3.21-7.19-7.16-7.19h-14.34c-4,0-7.21,3.23-7.21,7.19v28.72c0,3.98,3.21,7.2,7.21,7.2h0Z"/></g></svg>