<?xml version="1.0" encoding="UTF-8"?><svg id="Layer_2" xmlns="http://www.w3.org/2000/svg" viewBox="0 0 214.66 263.47"><defs><style>.cls-1{fill:#0c2e40;fill-rule:evenodd;}</style></defs><g id="Camada_1"><path class="cls-1" d="M89.41,195.57H55.46c-2.23,0-3.77-1.51-3.77-3.75v-3.85c0-1.83,1.54-3.7,3.77-3.7h33.94c1.89,0,3.8,1.87,3.8,3.7v3.85c0,2.23-1.91,3.75-3.8,3.75h0ZM109.42,18.65h-5.74c-3.18,0-5.66-2.49-5.66-5.57v-.12c0-7.2-5.76-12.97-13-12.97h-.31c-7.31,0-12.99,5.77-12.99,13.08v-.12c0,3.2-2.57,5.68-5.76,5.68h-5.66c-6.36,0-11.17,5.15-11.17,11.09v.4c0,6.03,4.81,11.08,11.17,11.08h49.13c6.02,0,11.11-5.05,11.11-11.08v-.4c0-5.95-5.09-11.09-11.11-11.09h0Zm.6,218.45H15.28c-8.57,0-15.28-6.78-15.28-15.14V41.22c0-8.32,6.7-14.95,11.4-14.95h30.41c-.25,1.4-.25,2.6-.25,3.87,0,10.15,8.24,18.74,18.72,18.74h49.13c10.14,0,18.74-8.59,18.74-19.15,0-1.23,0-2.5-.37-3.47h22.87c12.01,0,18.98,6.63,18.98,14.95v113.13c-1.28,0-2.48-.25-3.77-.25-5.43,0-10.48,.94-15.21,2.25V67.51H19.06V218.1H105.62c.62,6.8,1.91,13.06,4.4,19h0Zm55.85-71.57c-27.33,0-49.16,21.9-49.16,48.82s21.83,49.12,49.16,49.12,48.79-21.91,48.79-49.12-21.82-48.73-48.79-48.73v-.09Zm32.01,39.1l-30.12,33.85c-1.54,1.55-3.8,2.25-5.69,2.25-1.63,0-3.52-.27-4.81-1.65l-18.72-14.86c-3.45-2.52-3.76-7.39-1.19-10.81,2.48-3.18,7.3-3.78,10.4-.87l13.38,10.4,25.34-28.61c2.85-3.18,7.55-3.46,10.75-.52,2.85,2.73,3.15,7.45,.66,10.82h0Zm-82.12-73.01H55.46c-2.23,0-3.77-1.64-3.77-3.86v-3.78c0-1.88,1.54-3.44,3.77-3.44h60.3c2.16,0,3.8,1.56,3.8,3.44v3.78c0,2.22-1.63,3.86-3.8,3.86h0Zm0-34.01H55.46c-2.23,0-3.77-1.54-3.77-3.73v-3.5c0-2.22,1.54-3.87,3.77-3.87h60.3c2.16,0,3.8,1.65,3.8,3.87v3.5c0,2.19-1.63,3.73-3.8,3.73h0Zm-18.7,64.17H55.46c-2.23,0-3.77-1.54-3.77-3.8v-3.87c0-1.96,1.54-3.51,3.77-3.51h41.6c1.89,0,3.75,1.54,3.75,3.51v3.87c0,2.26-1.86,3.8-3.75,3.8h0Z"/></g></svg>