<?xml version="1.0" encoding="UTF-8"?><svg id="Layer_2" xmlns="http://www.w3.org/2000/svg" viewBox="0 0 205.59 218.76"><defs><style>.cls-1{fill:#0c2e40;fill-rule:evenodd;}</style></defs><g id="Camada_1"><path class="cls-1" d="M55.29,0l-13.75,150.49H0v34.05c0,19.02,15.2,34.23,34.25,34.23h123.07c18.78,0,34.01-15.2,34.01-33.44L205.59,0H55.29Zm-21.04,205.08c-11.32,0-20.47-9.14-20.47-20.54v-20.49H123.07l-35.94,19.05c0,7.61,38.56,16.39,42.7,21.98H34.25Zm143.59-20.54c0,11.34-9.19,20.54-20.51,20.54s-20.5-9.14-20.5-20.54v-34.05H55.29L67.77,13.77l101.59,15.83,8.47,154.93Zm-19.55-102.51H89.04l1.18-13.54h69l-.93,13.54Zm1.92-27.25H91.44l1.25-13.76h68.76l-1.24,13.76Zm-45.12,40.94h28.46l-1.25,13.76h-28.46l1.25-13.76Z"/></g></svg>