<?xml version="1.0" encoding="UTF-8"?><svg id="Layer_2" xmlns="http://www.w3.org/2000/svg" viewBox="0 0 472 213.56"><defs><style>.cls-1{fill:#0c2e40;}</style></defs><g id="Camada_1"><g><g><g><path class="cls-1" d="M63.37,93.82c.12-2.12,.09-4.22-.09-6.28-.19-2.06-.41-4.15-.66-6.28-.25-4.75-.94-9.68-2.06-14.8-1.12-5.12-2.75-9.87-4.87-14.24-.63-1.12-1.28-2.22-1.97-3.28-.69-1.06-1.35-2.09-1.97-3.09-.5-.87-1.1-1.69-1.78-2.44-.69-.75-1.34-1.43-1.97-2.06-1.87-1.62-3.69-2.93-5.44-3.94-1.63-.87-3.75-1.59-6.37-2.15-2.62-.56-4.81-.66-6.56-.28-3.25,.63-5.97,1.41-8.15,2.34-2.19,.94-4.4,2.59-6.65,4.97-1.5,1.5-2.81,3.19-3.93,5.06-1.63,2.62-2.94,5.12-3.94,7.5l-1.5,3.93c-.5,1.38-1.03,3.16-1.59,5.34-.56,2.19-.97,4.03-1.22,5.53l-1.12,7.12c-.5,3.13-.78,5.94-.84,8.43-.07,2.5-.22,5.31-.47,8.43-.25,2.62-.28,5.12-.09,7.5,.19,2.37,.34,4.87,.47,7.5,.12,2.25,.28,4.59,.47,7.03,.19,2.44,.47,4.78,.84,7.03l1.12,5.81c.12,.5,.22,1,.28,1.5,.06,.5,.22,1,.47,1.5l1.88,6.18c.5,1.25,.9,2.31,1.22,3.19,.31,.88,.78,1.94,1.4,3.19,.62,1.38,1.59,2.97,2.9,4.78,1.31,1.81,2.53,3.22,3.65,4.22,2.62,2.62,5.93,4.62,9.93,6,3.62,1,6.99,1.34,10.12,1.03,3.12-.31,6.31-1.41,9.56-3.28,.62-.38,1.19-.78,1.69-1.22,.5-.44,1.06-.9,1.68-1.41,1-1,1.9-2,2.72-3,.81-1,1.53-2.06,2.16-3.19,.75-1,1.25-1.75,1.5-2.25,.37-.5,.81-1.25,1.31-2.25l1.68-3.56,.19-.56c.62-1.62,1.12-3.12,1.5-4.5,.37-1.37,.81-2.93,1.31-4.68l.37-2.25c.5-1.87,.87-3.65,1.12-5.34s.5-3.47,.75-5.34c.25-2.12,.4-4.15,.47-6.09,.06-1.94,.15-3.96,.28-6.09,.25-2,.34-3.9,.28-5.72-.06-1.81-.09-3.65-.09-5.53Zm-19.67-.75c0,1.5-.07,3-.19,4.5,0,1.38-.03,2.78-.09,4.22-.06,1.44-.09,2.84-.09,4.22l-.37,6.18-.37,7.87-.37,4.87c-.12,1.38-.25,2.81-.37,4.31-.12,1.5-.31,2.94-.56,4.31l-.56,3c-.25,1.5-.47,2.62-.66,3.37-.19,.75-.59,1.81-1.22,3.19-.37,1.12-.69,2.03-.94,2.72-.25,.69-.81,1.47-1.69,2.34l-.37,.37c-1.12,1.12-2.37,2-3.75,2.62-1.38,.63-2.94,.63-4.69,0l-2.62-1.69c-.63-.5-1.16-.97-1.59-1.41-.44-.44-.91-.97-1.41-1.59-1.63-2.62-2.75-5.25-3.37-7.87-.63-2.62-1.12-5.44-1.5-8.43-.12-.37-.19-.81-.19-1.31-.25-2-.47-4.25-.66-6.75-.19-2.5-.22-4.75-.09-6.75v-11.62c0-1.37,.03-2.62,.09-3.75,.06-1.12,.09-2.37,.09-3.75,0-1.62,.03-3.19,.09-4.68,.06-1.5,.09-3.12,.09-4.87l.56-6.75v-4.12l.56-6.75,.56-4.68,.75-5.25,.37-2.25,1.12-3.75c.37-1,.78-1.94,1.22-2.81,.44-.87,.97-1.69,1.59-2.44l.37-.38c1.75-2,3.81-3.19,6.18-3.56,2.37-.37,4.62,.37,6.75,2.25,.87,1.12,1.62,2.25,2.25,3.37,.87,1.5,1.53,3.03,1.97,4.59,.44,1.56,.78,3.22,1.03,4.97l1.12,5.62c0,.63,.03,1.22,.09,1.78,.06,.56,.09,1.16,.09,1.78l.56,6.93v.19c0,2.12,.03,4.31,.09,6.56,.06,2.25,.09,4.44,.09,6.56v4.5Z"/><path class="cls-1" d="M52.12,111.99c.25,0,.44-.06,.56-.19l.56,.94c.25-.37,.22-.66-.09-.84-.31-.19-.47-.47-.47-.84l-.75,.75,.19,.19Z"/><path class="cls-1" d="M164.74,40.22c0,2-.03,4-.09,6-.07,2-.09,4.06-.09,6.18v15.18c-.25,.75-1.19,1.12-2.81,1.12s-2.75-.19-3.37-.56c-1.25-.87-2.06-2.19-2.44-3.94-.37-1.75-.75-3.31-1.12-4.68-.75-2.37-1.69-4.75-2.81-7.12-1.13-2.37-2.75-4.25-4.87-5.62-2.25-1.5-4.41-1.75-6.47-.75-2.06,1-3.59,2.62-4.59,4.87-.88,2-1.44,3.87-1.69,5.62-.25,.75-.44,1.53-.56,2.34-.12,.81-.25,1.59-.37,2.34-.12,.63-.22,1.22-.28,1.78-.07,.56-.09,1.16-.09,1.78l-.56,3.75c-.12,.5-.19,1.31-.19,2.44-.25,2.88-.44,5.78-.56,8.71-.12,2.94-.25,5.9-.37,8.9-.12,1-.16,2.03-.09,3.09,.06,1.06,.09,2.09,.09,3.09v8.99c0,1.25,.03,2.47,.09,3.65,.06,1.19,.09,2.47,.09,3.84l.56,6.56c0,1,.03,2.03,.09,3.09,.06,1.06,.16,2.16,.28,3.28l1.13,7.5c.25,1.62,.62,3.44,1.12,5.43,.5,2,1.22,3.94,2.16,5.81,.94,1.87,2.09,3.47,3.47,4.78,1.37,1.31,3.06,2.03,5.06,2.16,1.25,0,2.31-.25,3.19-.75,.87-.5,1.78-.97,2.72-1.41,.94-.44,1.9-.68,2.9-.75,1-.06,2.25,.47,3.75,1.59,1.5,1.25,2.06,2.41,1.69,3.47-.37,1.06-1.25,2.15-2.62,3.28-2.12,1.75-4.56,3.03-7.31,3.84-2.75,.81-5.5,1.09-8.25,.84-1.75-.12-3.44-.5-5.06-1.12-.63-.12-1.22-.31-1.78-.56-.56-.25-1.16-.5-1.78-.75-.5-.25-1.25-.75-2.25-1.5-2-1.5-3.5-2.78-4.5-3.84-1-1.06-2.12-2.65-3.37-4.78-1.38-2-2.81-4.59-4.31-7.78-1.5-3.19-2.44-5.97-2.81-8.34-.13-.62-.25-1.19-.37-1.69-.13-.5-.31-1.06-.56-1.69l-1.12-6.56c-.37-2.37-.66-4.5-.84-6.37-.19-1.87-.35-4.06-.47-6.56-.13-1-.31-2.09-.56-3.28-.25-1.19-1.06-1.72-2.44-1.59-.63,0-1.28-.06-1.97-.19-.69-.12-1.16-.62-1.4-1.5-.13-.5-.13-1.25,0-2.25,.12-1,.31-2.03,.56-3.09,.25-1.06,.56-2.06,.94-3,.37-.94,.75-1.59,1.12-1.97,.5-.75,1-1.22,1.5-1.41s.9-.37,1.22-.56c.31-.19,.56-.5,.75-.94,.19-.44,.28-1.15,.28-2.15,.25-2.37,.47-4.59,.66-6.65,.19-2.06,.59-4.34,1.22-6.84,.25-1.12,.44-2.18,.56-3.19,.12-1,.31-2.06,.56-3.19,.62-2.12,1.31-4.31,2.06-6.56,.75-2.25,1.62-4.31,2.62-6.18,1.37-2.87,2.9-5.43,4.59-7.68,1.69-2.25,3.84-4.31,6.46-6.18,1.37-1,2.87-1.75,4.5-2.25,1.62-.5,3.31-.87,5.06-1.12,1.37-.12,2.72-.12,4.03,0,1.31,.13,2.65,.5,4.03,1.12,1.5,.5,3.25,1.25,5.25,2.25,1.37,.5,2.44,.5,3.19,0,.75-.5,1.62-1.19,2.62-2.06,1.75-1.62,3-2.34,3.75-2.15s1.19,1.66,1.31,4.4Z"/><path class="cls-1" d="M229.02,93.82c.12-2.12,.09-4.22-.09-6.28-.19-2.06-.41-4.15-.66-6.28-.25-4.75-.94-9.68-2.06-14.8-1.12-5.12-2.75-9.87-4.87-14.24-.63-1.12-1.28-2.22-1.97-3.28-.69-1.06-1.35-2.09-1.97-3.09-.5-.87-1.1-1.69-1.78-2.44-.69-.75-1.34-1.43-1.97-2.06-1.87-1.62-3.69-2.93-5.44-3.94-1.63-.87-3.75-1.59-6.37-2.15-2.62-.56-4.81-.66-6.56-.28-3.25,.63-5.97,1.41-8.15,2.34-2.19,.94-4.4,2.59-6.65,4.97-1.5,1.5-2.81,3.19-3.93,5.06-1.63,2.62-2.94,5.12-3.94,7.5l-1.5,3.93c-.5,1.38-1.03,3.16-1.59,5.34-.56,2.19-.97,4.03-1.22,5.53l-1.12,7.12c-.5,3.13-.78,5.94-.84,8.43-.07,2.5-.22,5.31-.47,8.43-.25,2.62-.28,5.12-.09,7.5,.19,2.37,.34,4.87,.47,7.5,.12,2.25,.28,4.59,.47,7.03,.19,2.44,.47,4.78,.84,7.03l1.12,5.81c.12,.5,.22,1,.28,1.5,.06,.5,.22,1,.47,1.5l1.88,6.18c.5,1.25,.9,2.31,1.22,3.19,.31,.88,.78,1.94,1.4,3.19,.62,1.38,1.59,2.97,2.9,4.78,1.31,1.81,2.53,3.22,3.65,4.22,2.62,2.62,5.93,4.62,9.93,6,3.62,1,6.99,1.34,10.12,1.03,3.12-.31,6.31-1.41,9.56-3.28,.62-.38,1.19-.78,1.69-1.22,.5-.44,1.06-.9,1.68-1.41,1-1,1.9-2,2.72-3,.81-1,1.53-2.06,2.16-3.19,.75-1,1.25-1.75,1.5-2.25,.37-.5,.81-1.25,1.31-2.25l1.68-3.56,.19-.56c.62-1.62,1.12-3.12,1.5-4.5,.37-1.37,.81-2.93,1.31-4.68l.37-2.25c.5-1.87,.87-3.65,1.12-5.34s.5-3.47,.75-5.34c.25-2.12,.4-4.15,.47-6.09,.06-1.94,.15-3.96,.28-6.09,.25-2,.34-3.9,.28-5.72-.06-1.81-.09-3.65-.09-5.53Zm-19.67-.75c0,1.5-.07,3-.19,4.5,0,1.38-.03,2.78-.09,4.22-.06,1.44-.09,2.84-.09,4.22l-.37,6.18-.37,7.87-.37,4.87c-.12,1.38-.25,2.81-.37,4.31-.12,1.5-.31,2.94-.56,4.31l-.56,3c-.25,1.5-.47,2.62-.66,3.37-.19,.75-.59,1.81-1.22,3.19-.37,1.12-.69,2.03-.94,2.72-.25,.69-.81,1.47-1.69,2.34l-.37,.37c-1.12,1.12-2.37,2-3.75,2.62-1.38,.63-2.94,.63-4.69,0l-2.62-1.69c-.63-.5-1.16-.97-1.59-1.41-.44-.44-.91-.97-1.41-1.59-1.63-2.62-2.75-5.25-3.37-7.87-.63-2.62-1.12-5.44-1.5-8.43-.12-.37-.19-.81-.19-1.31-.25-2-.47-4.25-.66-6.75-.19-2.5-.22-4.75-.09-6.75v-11.62c0-1.37,.03-2.62,.09-3.75,.06-1.12,.09-2.37,.09-3.75,0-1.62,.03-3.19,.09-4.68,.06-1.5,.09-3.12,.09-4.87l.56-6.75v-4.12l.56-6.75,.56-4.68,.75-5.25,.37-2.25,1.12-3.75c.37-1,.78-1.94,1.22-2.81,.44-.87,.97-1.69,1.59-2.44l.37-.38c1.75-2,3.81-3.19,6.18-3.56,2.37-.37,4.62,.37,6.75,2.25,.87,1.12,1.62,2.25,2.25,3.37,.87,1.5,1.53,3.03,1.97,4.59,.44,1.56,.78,3.22,1.03,4.97l1.12,5.62c0,.63,.03,1.22,.09,1.78,.06,.56,.09,1.16,.09,1.78l.56,6.93v.19c0,2.12,.03,4.31,.09,6.56,.06,2.25,.09,4.44,.09,6.56v4.5Z"/><path class="cls-1" d="M292.36,154.06c-.12-.69-.69-1.47-1.68-2.34-.88-.75-1.53-1.37-1.97-1.87-.44-.5-.78-.97-1.03-1.41-.25-.44-.47-1-.66-1.69-.19-.69-.47-1.59-.84-2.72-.25-.87-.44-1.72-.56-2.53-.12-.81-.31-1.72-.56-2.72l-1.5-5.25-.94-4.68c-.5-1.37-.81-2.62-.94-3.75l-.94-3.75c-.25-1.12-.47-2.18-.66-3.19-.19-1-.47-2-.84-3-.5-1.62-1.06-3.15-1.69-4.59-.63-1.43-.25-2.9,1.12-4.4,1.75-1.75,3.25-3.87,4.5-6.37,1.25-2.5,2.31-4.87,3.19-7.12,.25-.75,.47-1.5,.66-2.25,.19-.75,.4-1.56,.66-2.44l1.31-4.87c.12-.62,.22-1.25,.28-1.87,.06-.62,.09-1.25,.09-1.87,.12-.75,.22-1.5,.28-2.25,.06-.75,.09-1.43,.09-2.06v-3.75c0-1.37-.07-2.68-.19-3.94-.12-1.25-.37-2.5-.75-3.75-.25-1-.47-1.97-.66-2.9-.19-.94-.41-1.9-.66-2.9-.75-2.5-1.87-4.99-3.37-7.5l-.19-.37c-2.87-4.62-6.65-8.09-11.34-10.4-4.69-2.31-9.65-3.72-14.9-4.22-1.5-.12-3-.19-4.5-.19h-9.93c-1.38,0-2.69-.03-3.94-.09-1.25-.06-2.5-.09-3.75-.09-1.25,.13-2.5,.22-3.75,.28-1.25,.06-2.06,.72-2.44,1.97-.75,2.37-.25,4.37,1.5,6,1.25,1.25,2.09,2.25,2.53,3,.44,.75,.78,2.06,1.03,3.94v38.42c0,2-.03,3.97-.09,5.9-.06,1.94-.03,3.84,.09,5.72v44.97l-.19,.56c-.25,1.12-.56,2-.94,2.62-.37,.63-.94,1.38-1.69,2.25-.75,1-1.44,2.13-2.06,3.37-.63,1.25-.5,2.5,.37,3.75l.37,.37c1,.88,2.47,1.34,4.41,1.41,1.93,.06,3.53,.09,4.78,.09,2-.12,3.97-.12,5.9,0,1.94,.13,3.9,.13,5.9,0,1.12-.12,2.34-.19,3.65-.19s2.22-.69,2.72-2.06c.25-.5,.37-.94,.37-1.31,.12-1,0-1.84-.37-2.53-.37-.69-.78-1.28-1.22-1.78-.44-.5-.94-1-1.5-1.5-.56-.5-.97-1.12-1.22-1.87-.63-1.75-.94-3.87-.94-6.37,0-1.62-.03-3.31-.09-5.06-.07-1.75-.03-3.43,.09-5.06,.12-1.37,.19-2.65,.19-3.84v-5.53c0-1-.03-2.34-.09-4.03-.06-1.69,.03-2.97,.28-3.84,.37-1.12,1.06-1.59,2.06-1.41,1,.19,2.06,.63,3.19,1.31,1.12,.69,2.18,1.47,3.19,2.34,1,.88,1.69,1.5,2.06,1.87,.25,.25,.5,.63,.75,1.12,1.37,2.13,2.4,4.4,3.09,6.84,.69,2.44,1.15,4.9,1.41,7.4,.12,1.62,.22,3.16,.28,4.59,.06,1.44,.22,2.97,.47,4.59l.56,4.31c.12,.75,.28,1.69,.47,2.81,.19,1.12,.41,2.28,.66,3.47,.25,1.19,.56,2.28,.94,3.28,.37,1,.87,1.69,1.5,2.06l.19,.19c1.75,.5,3.62,.68,5.62,.56,2-.12,3.87-.19,5.62-.19,1.5,.13,2.93,.16,4.31,.09,1.37-.06,2.25-1.03,2.62-2.9,.25-1.25,.31-2.22,.19-2.9Zm-20.24-74.86c-.12,1.12-.22,2.25-.28,3.37-.07,1.12-.22,2.25-.47,3.37-.63,2.88-1.75,5.5-3.37,7.87-.75,1.25-1.44,2.15-2.06,2.72-.63,.56-1.5,1.34-2.62,2.34-1,.88-2.22,1.69-3.65,2.44-1.44,.75-2.84,1.19-4.22,1.31-.88,.13-1.5-.12-1.88-.75-.37-.62-.59-1.41-.66-2.34-.06-.94-.06-1.87,0-2.81,.06-.94,.09-1.66,.09-2.16-.13-1.37-.16-2.78-.09-4.22,.06-1.43,.09-2.84,.09-4.22v-2.72c0-.81-.07-1.72-.19-2.72-.12-1.5-.12-2.93,0-4.31,.12-1.37,.19-2.75,.19-4.12-.13-1.37-.16-2.75-.09-4.12,.06-1.37,.09-2.75,.09-4.12v-.94c-.13-.75-.16-1.5-.09-2.25,.06-.75,.09-1.5,.09-2.25s-.03-1.53-.09-2.34c-.06-.81,0-1.56,.19-2.25,.19-.69,.53-1.25,1.03-1.69,.5-.44,1.31-.59,2.44-.47,1.62,.25,3.15,.78,4.59,1.59,1.43,.81,2.72,1.72,3.84,2.72,.62,.63,1.15,1.28,1.59,1.97,.44,.69,.9,1.34,1.4,1.97,.37,.63,.72,1.28,1.03,1.97,.31,.69,.59,1.34,.84,1.97,.62,1.5,1.06,3.06,1.31,4.68,.25,1,.44,1.97,.56,2.9,.12,.94,.25,1.91,.37,2.9,0,.75,.03,1.53,.09,2.34,.06,.81,.03,1.59-.09,2.34Z"/><path class="cls-1" d="M358.51,59.9c.25,1.38,.06,2.5-.56,3.37-1,1.38-2.25,2.03-3.75,1.97-1.5-.06-2.56-.97-3.19-2.72-.63-1.37-.97-2.4-1.03-3.09-.07-.68-.6-1.72-1.59-3.09-1.25-1.37-2.69-2.37-4.31-3-1.63-.62-3.31-1.06-5.06-1.31-1.12,0-1.97,.19-2.53,.56-.56,.37-.94,.91-1.13,1.59-.19,.69-.25,1.47-.19,2.34,.06,.88,.09,1.75,.09,2.62v31.86c0,6.87-.07,13.81-.19,20.8,0,2.13,.03,4.25,.09,6.37,.06,2.12,.09,4.25,.09,6.37,0,2.5-.03,4.9-.09,7.22-.07,2.31-.09,4.72-.09,7.22-.12,2.75-.09,5.15,.09,7.21,.19,2.06,1.34,4.16,3.47,6.28,.75,.88,1.22,2.03,1.41,3.47,.19,1.44-.09,2.59-.84,3.47-.75,.62-1.91,.9-3.47,.84-1.56-.06-2.78-.09-3.65-.09h-3c-1,0-2-.06-3-.19-1.5-.12-3.06-.16-4.68-.09-1.63,.06-3.25,.16-4.87,.28-1.12,.12-2.09,0-2.9-.37-.81-.37-1.28-1.25-1.41-2.62-.12-1,.06-2.06,.56-3.19,.5-1.12,1-1.9,1.5-2.34,.5-.44,.94-.9,1.31-1.41,.37-.5,.72-1.12,1.03-1.87,.31-.75,.47-1.94,.47-3.56v-1.5c.25-3.87,.31-7.75,.19-11.62-.13-3.87-.19-7.81-.19-11.81V55.21c0-1.87-.69-2.87-2.06-3-1.38-.12-2.75-.19-4.12-.19-1.75,.13-3.03,.35-3.84,.66-.81,.31-1.84,1.22-3.09,2.72-1.5,1.75-2.31,3.41-2.44,4.97-.12,1.56-.75,2.84-1.87,3.84-1,1-2.28,1.22-3.84,.66-1.56-.56-2.41-1.72-2.53-3.47-.12-.87-.16-1.84-.09-2.9,.06-1.06,.09-2.09,.09-3.09,.12-1.87,.19-3.72,.19-5.53v-5.53c0-1.25-.09-2.4-.28-3.47-.19-1.06,.34-2.03,1.59-2.9,.75-.5,1.84-.66,3.28-.47,1.43,.19,2.59,.35,3.47,.47l3.56,.56c1,.12,1.94,.22,2.81,.28,.87,.06,1.81,.09,2.81,.09,1,.13,2.18,.19,3.56,.19s2.5-.19,3.37-.56c.87-.38,1.56-.72,2.06-1.03,.5-.31,1-.53,1.5-.66,.5-.12,1.03-.19,1.59-.19h2.53c.87,0,2.16,.03,3.84,.09,1.68,.06,2.9,.22,3.65,.47,.37,.13,.78,.28,1.22,.47,.44,.19,.84,.41,1.22,.66,.87,.5,1.72,.72,2.53,.66,.81-.06,1.66-.09,2.53-.09,1.88,.13,3.53,.16,4.97,.09,1.43-.06,3.15-.34,5.15-.84,1-.25,2.25-.47,3.75-.66,1.5-.19,2.62,.16,3.37,1.03,.75,.88,1.06,2.25,.94,4.12-.13,1.87-.19,3.37-.19,4.5v6.37c0,2.13,.06,4.25,.19,6.37Z"/><path class="cls-1" d="M416.6,60.27c0,1.38-.19,2.34-.56,2.9s-1.31,.91-2.81,1.03c-1.38,.13-2.41-.09-3.09-.66-.69-.56-1.19-1.28-1.5-2.15-.31-.87-.59-1.84-.84-2.9-.25-1.06-.63-2.03-1.12-2.9l-.19-.56c-.87-1.25-1.84-2.18-2.9-2.81-1.06-.62-2.28-1.12-3.66-1.5-1.38-.5-2.84-.78-4.4-.84-1.56-.06-3.09-.09-4.59-.09-1.38,0-2.37,.22-3,.66-.63,.44-1.03,1-1.22,1.69-.19,.69-.25,1.47-.19,2.34,.06,.88,.09,1.87,.09,3v26.61c.37,1.75,1.37,2.31,3,1.69,1.37-.5,2.72-.97,4.03-1.41,1.31-.44,2.65-.84,4.03-1.22,1-.37,2.06-.62,3.19-.75,1.12-.12,2.25-.19,3.37-.19,1.5,0,2.62,.44,3.37,1.31,.87,1.12,1.31,2.19,1.31,3.19-.12,1.38-.19,2.75-.19,4.12v4.12c0,.63,.03,1.28,.09,1.97,.06,.69,.09,1.34,.09,1.97,0,.75-.34,1.41-1.03,1.97-.69,.56-1.53,.66-2.53,.28-1.5-.75-3.12-1.31-4.87-1.69-.5-.25-.97-.37-1.4-.37h-1.22c-.75,0-1.72-.03-2.9-.09-1.19-.06-2.37,0-3.56,.19s-2.25,.5-3.19,.94c-.94,.44-1.47,1.16-1.59,2.16-.12,.37-.16,1.28-.09,2.72,.06,1.44,.09,2.34,.09,2.72v6c0,.75-.03,1.47-.09,2.15-.06,.69-.03,1.47,.09,2.34,0,.75-.03,1.56-.09,2.44-.06,.88-.03,1.75,.09,2.62,0,1.12-.06,2.25-.19,3.37-.12,1.12-.12,2.37,0,3.75,.12,1.5,.16,3,.09,4.5-.06,1.5-.09,3-.09,4.5,0,.88-.03,1.97-.09,3.28-.07,1.31,.22,2.28,.84,2.9,.62,.63,1.53,.91,2.72,.84,1.19-.06,2.22-.09,3.09-.09,3.5,.13,6.62-.4,9.37-1.59,2.75-1.19,4.62-3.72,5.62-7.59,.25-1.37,.53-2.5,.84-3.37,.31-.87,1.28-1.43,2.9-1.69,1-.25,1.97-.16,2.9,.28,.94,.44,1.47,1.28,1.59,2.53,.12,1,.19,2.37,.19,4.12v4.12c-.12,.63-.19,1.56-.19,2.81,0,1.75,.03,3.5,.09,5.25,.06,1.75,.03,3.5-.09,5.25,0,.38-.03,.97-.09,1.78-.07,.81-.19,1.56-.37,2.25-.19,.68-.5,1.22-.94,1.59-.44,.37-1.03,.25-1.78-.37-1.5-1.25-2.97-1.97-4.4-2.16-1.44-.19-3.03-.28-4.78-.28-1.63,0-3.22,.03-4.78,.09-1.56,.06-3.16,.09-4.78,.09-1,0-1.87-.03-2.62-.09-.75-.06-1.63-.03-2.62,.09h-8.06c-.37,0-.78-.03-1.22-.09-.44-.06-.91-.09-1.41-.09-.25,0-.56,.03-.94,.09-.38,.06-.69,.09-.94,.09s-.56-.03-.94-.09c-.37-.06-.69-.03-.94,.09h-6.93c-1-.12-1.81-.19-2.44-.19s-1.19-.56-1.69-1.69c-.37-.87-.5-1.87-.37-3,.12-1.12,.56-2,1.31-2.62,.25-.12,.44-.31,.56-.56,.12-.25,.31-.5,.56-.75,1.5-1.62,2.31-3.25,2.44-4.87,.12-1.62,.25-3.5,.38-5.62v-1.69c0-.87-.03-1.78-.09-2.72-.07-.94-.09-1.84-.09-2.72,0-1.87,.03-3.78,.09-5.72,.06-1.94,.09-3.9,.09-5.9v-8.62c0-1.87-.07-3.31-.19-4.31-.12-1-1.44-1.06-3.93-.19-.25,0-.63,.09-1.13,.28s-1.03,.31-1.59,.37c-.56,.06-1.03,.06-1.4,0-.37-.06-.56-.34-.56-.84,0-1.37,.06-2.78,.19-4.22,.12-1.43,.19-2.84,.19-4.22s-.06-2.65-.19-3.84c-.13-1.19-.25-2.4-.37-3.65-.13-2.12,.19-3.34,.94-3.65,.75-.31,1.65-.34,2.72-.09,1.06,.25,2.09,.47,3.09,.66,1,.19,1.69-.28,2.06-1.41v-.56l.19-.56c.25-1,.31-1.97,.19-2.9-.12-.94-.19-1.9-.19-2.9v-22.49c0-.62,.03-1.31,.09-2.06,.06-.75,.09-1.43,.09-2.06l-.37-4.12c-.12-1.12-.44-2-.94-2.62-.5-.62-1.03-1.22-1.59-1.78-.56-.56-1.1-1.15-1.59-1.78-.5-.62-.81-1.5-.94-2.62-.12-1.12,.12-2.16,.75-3.09,.62-.94,1.62-1.34,3-1.22,2.87,.13,5.87,.16,8.99,.09,3.12-.06,6.12-.09,8.99-.09h21.55c1.75,0,3-.16,3.75-.47,.75-.31,1.81-.84,3.19-1.59,1-.5,1.75-.47,2.25,.09,.5,.56,.81,1.34,.94,2.34,.12,1,.15,2.03,.09,3.09-.06,1.06-.09,1.84-.09,2.34v17.62Z"/><path class="cls-1" d="M471.88,123.99c0,1,.03,2.03,.09,3.09,.06,1.06,.03,2.09-.09,3.09,0,.75-.06,1.53-.19,2.34-.13,.81-.25,1.66-.37,2.53-.25,1-.41,1.78-.47,2.34-.07,.56-.28,1.34-.66,2.34-.25,.5-.37,.91-.37,1.22s-.12,.78-.37,1.41c-.63,1.75-1.44,3.44-2.44,5.06-1,1.63-2.12,3.19-3.37,4.69-1.5,1.75-3.19,3.25-5.06,4.5l-.19,.19c-1,.63-2.15,1.19-3.47,1.69-1.31,.5-2.53,.88-3.65,1.12-1.63,.25-3.35,.4-5.15,.47-1.81,.06-3.53-.03-5.15-.28-.88-.12-1.66-.28-2.34-.47-.69-.19-1.41-.4-2.16-.66-1.25-.5-2.19-.84-2.81-1.03-.63-.19-1.63-.15-3,.09-1.38,.37-2.69,.69-3.93,.94-1.25,.25-2.44-.12-3.56-1.12-.25-.25-.41-.5-.47-.75-.07-.25-.16-.5-.28-.75,0-.75-.06-1.59-.19-2.53-.13-.94-.25-1.78-.37-2.53-.25-2.25-.41-4.53-.47-6.84-.07-2.31-.16-4.65-.28-7.03,0-1.75,.06-3.68,.19-5.81,.12-2.12,.31-4.06,.56-5.81,.25-2.37,.56-4.68,.94-6.93,.37-2.25,.87-4.5,1.5-6.75l.94-4.31c.75-4,1.75-6.21,3-6.65,1.25-.44,3.31,.72,6.18,3.47,1,1,1.65,1.85,1.97,2.53,.31,.69,.41,1.31,.28,1.87s-.41,1.22-.84,1.97c-.44,.75-.97,1.69-1.59,2.81-1.38,2.75-2.28,5-2.72,6.75-.44,1.75-.66,4.19-.66,7.31,0,.5,.03,1.28,.09,2.34,.06,1.06,.12,2.16,.19,3.28,.06,1.12,.16,2.19,.28,3.19,.12,1,.31,1.75,.56,2.25,.87,2.5,1.69,4.5,2.44,6,.75,1.5,2.18,3.19,4.31,5.06,1.62,1.38,3.19,2.06,4.69,2.06s3.12-.5,4.87-1.5c1.5-.87,2.81-2.25,3.93-4.12,1.13-1.87,1.88-3.62,2.25-5.25,.37-2,.59-4,.66-6,.06-2-.09-4-.47-6-.5-2.75-1.28-5.43-2.34-8.06-1.06-2.62-2.28-5.12-3.65-7.5l-3.93-5.62c-1.25-1.75-2.62-3.4-4.12-4.97-1.5-1.56-2.94-3.09-4.31-4.59-.5-.5-.94-.97-1.31-1.41-.37-.44-.75-.9-1.13-1.41-.87-1-1.72-2-2.53-3-.81-1-1.59-2-2.34-3-.63-.87-1.19-1.72-1.69-2.53-.5-.81-1-1.72-1.5-2.72-1-1.87-1.75-3.75-2.25-5.62-.38-1.25-.66-2.47-.84-3.65-.19-1.19-.41-2.4-.66-3.65-.25-.75-.37-1.5-.37-2.25v-3.94c0-.5,.06-1,.19-1.5v-1.69c0-.5,.06-1.06,.19-1.69,.25-1.37,.53-2.72,.84-4.03,.31-1.31,.78-2.65,1.41-4.03,1.25-3.12,3.19-6.12,5.81-8.99,1.37-1.5,3.06-2.87,5.06-4.12,2.75-1.37,5.5-2.06,8.25-2.06h.94c1.12,0,2.25,.19,3.37,.56,.62,.25,1.25,.44,1.88,.56,.62,.13,1.25,.31,1.87,.56,1,.37,2,.81,3,1.31,1,.5,2,.5,3,0,.75-.37,1.53-.78,2.34-1.22,.81-.44,1.62-.75,2.44-.94,.81-.19,1.5-.06,2.06,.37,.56,.44,.9,1.41,1.03,2.9,.12,1.75,.16,3.62,.09,5.62-.06,2-.09,3.87-.09,5.62v5.9c0,1.94,.06,3.91,.19,5.9,0,1.75-.28,3.09-.84,4.03-.56,.94-1.91,1.22-4.03,.84-1.63-.25-2.62-1-3-2.25-.37-1.25-.69-2.56-.94-3.94-.37-1.62-.75-3.12-1.12-4.5-.37-1.37-.88-2.81-1.5-4.31-.63-1.25-1.28-2.4-1.97-3.47-.69-1.06-1.59-2.03-2.72-2.9-1.87-1.5-4-2.06-6.37-1.69-1.12,.37-2.25,.94-3.37,1.69-1.5,1.38-2.62,2.88-3.37,4.5-1.5,3.63-1.62,7.44-.37,11.43,.25,1.12,.59,2.25,1.03,3.37,.44,1.12,.97,2.19,1.59,3.19,.37,.75,.75,1.47,1.12,2.16,.37,.69,.87,1.34,1.5,1.97,.87,1.12,1.69,2.22,2.44,3.28,.75,1.06,1.62,2.09,2.62,3.09l6.56,6.93,2.81,3,3.56,4.31,3.37,4.31c.5,.63,.94,1.25,1.31,1.87,.37,.63,.75,1.25,1.12,1.87,.37,.63,.75,1.19,1.12,1.69,.38,.5,.69,1.06,.94,1.69l2.25,5.44c.62,1.38,1.09,2.78,1.4,4.22,.31,1.44,.59,2.84,.84,4.22l.37,3.94Z"/></g><path class="cls-1" d="M373.02,29.78c-1.71,0-2.8-.08-3.28-.25-.48-.17-.62-.52-.43-1.07,.09-.21,.31-.35,.64-.41,.33-.06,.74-.17,1.21-.32,.76-.21,1.36-.4,1.78-.57,.43-.17,.76-.35,1-.55,.24-.2,.43-.41,.57-.64,.14-.23,.31-.5,.5-.8l.57-1.05,1-1.42c.19-.27,.36-.54,.5-.8s.31-.52,.5-.8l.57-1c.19-.24,.34-.46,.43-.66,.09-.2,.19-.42,.28-.66,.19-.21,.38-.47,.57-.78l.86-1.51c.19-.21,.33-.41,.43-.59,.1-.18,.19-.38,.28-.59l3.57-5.71c.48-.79,.81-1.63,1-2.51s.33-1.73,.43-2.56c0-.24-.02-.48-.07-.71-.05-.23-.07-.46-.07-.71,0-.37-.05-.7-.14-1-.09-.3-.24-.64-.43-1l-.14-.09c-.09-.21-.14-.45-.14-.71s.52-.36,1.57-.3c.28,0,.71,.05,1.28,.16,.57,.11,1.19,.23,1.85,.36,.67,.14,1.26,.27,1.78,.39,.52,.12,.88,.21,1.07,.27,.95,.27,1.62,.62,2,1.05l1.28,1.51c.19,.3,.33,.57,.43,.8,.1,.23,.24,.48,.43,.75,0,.09,.05,.18,.14,.27,.1,.09,.19,.18,.29,.27l.43,.96s.1,.11,.28,.23l.43,.78,.71,1.19c.19,.18,.28,.33,.28,.46,.19,.18,.31,.36,.36,.52,.05,.17,.12,.34,.21,.52,.38,.52,.71,1.01,1,1.48,.29,.47,.57,.96,.86,1.48l1.43,2.05c.38,.73,.78,1.45,1.21,2.17,.43,.71,.88,1.42,1.36,2.12,.28,.43,.57,.85,.86,1.28,.28,.43,.52,.85,.71,1.28l1.28,2.05c.19,.24,.36,.5,.5,.78s.31,.53,.5,.78c.28,.34,.55,.59,.78,.78,.24,.18,.5,.33,.78,.46s.64,.24,1.07,.37c.43,.12,.98,.3,1.64,.55,.48,.15,.74,.3,.78,.46,.05,.15,.02,.35-.07,.59-.09,.34-.4,.52-.93,.55-.52,.03-1.26,.04-2.21,.04h-10.84c-1.23,0-2.52,.02-3.85,.05-1.52,0-2.37-.23-2.57-.68-.09-.4,.05-.68,.43-.87,.38-.18,.78-.34,1.21-.48s.83-.27,1.21-.41c.38-.14,.57-.34,.57-.62-.09-.18-.16-.36-.21-.53-.05-.17-.16-.34-.36-.52-.19-.34-.4-.66-.64-.96-.23-.3-.5-.62-.78-.96-.19-.24-.35-.46-.5-.66-.14-.2-.31-.42-.5-.66l-1.43-1.96-2-2.92c-.09-.09-.21-.21-.36-.37s-.31-.28-.5-.39c-.19-.11-.43-.16-.71-.16s-.62,.11-1,.32c-.38,.24-.71,.6-1,1.07-.28,.47-.52,.86-.71,1.16l-.86,1.19-.85,1.1c-.19,.27-.36,.54-.5,.8s-.31,.51-.5,.75l-.86,1.05c-.19,.24-.36,.48-.5,.71-.14,.23-.31,.46-.5,.71-.19,.18-.35,.36-.5,.53-.14,.17-.17,.36-.07,.57,.19,.39,.64,.66,1.35,.8,.71,.14,1.45,.33,2.21,.57,.48,.15,.74,.32,.78,.5,.05,.18,.07,.37,.07,.55,.19,.43-.47,.67-2,.73h-11.13Z"/></g><g><path class="cls-1" d="M11.9,183.31c8.46,0,9.5,7.8,9.47,14.45-.04,8.04-1.08,15.8-9.54,15.8s-9.47-7.77-9.54-15.8c0-6.65,1-14.45,9.62-14.45Zm-.15,2.9c-4.95,0-6.18,5.18-6.14,11.63,.04,8.38,.89,12.83,6.22,12.83s6.18-4.44,6.22-12.83c.04-6.45-1.2-11.63-6.3-11.63Z"/><path class="cls-1" d="M29.4,193.74h.08c1.47-1.85,3.05-2.94,5.37-2.94,3.21,0,5.29,1.7,5.29,5.49v16.57h-3.05v-15.72c0-2.24-.73-3.75-3.21-3.75-1.12,0-2.2,.42-3.01,1.2-1.24,1.12-1.39,2.36-1.39,3.9v14.37h-3.05v-21.48h2.97v2.36Z"/><path class="cls-1" d="M56.25,183.89h3.05v28.98h-2.94v-2.82h-.08c-1.31,2.55-2.63,3.4-5.22,3.4-6.76,0-6.22-9.47-6.3-11.36-.23-6.3,1.85-11.28,6.45-11.28,2.2,0,3.52,.93,4.95,2.78h.08v-9.7Zm0,17.89c0-2.94-.08-8.38-4.17-8.38-2.55,0-4.21,2.01-4.21,8.62,0,4.64,.15,8.85,4.33,8.85,3.17,0,4.06-3.98,4.06-6.41v-2.67Z"/><path class="cls-1" d="M77.34,205.72c.19,4.21-1.97,7.73-6.49,7.73-4.06,0-6.95-2.7-6.95-11.36,0-4.52,1.2-11.28,6.88-11.28,6.96,0,6.57,6.57,6.72,11.59h-10.43c.08,2.9-.42,8.46,3.86,8.46,2.94,0,3.75-2.7,3.55-5.14h2.86Zm-3.01-5.83c-.12-2.51,.04-6.49-3.52-6.49s-3.63,3.94-3.75,6.49h7.26Z"/><path class="cls-1" d="M95.37,191.39h3.59v2.59h-3.55v14.64c0,.73-.27,1.66,1.43,1.66h2.05v2.59h-3.36c-1.82,.04-3.17-.27-3.17-3.52v-15.38h-2.97v-2.59h2.97v-5.83h3.01v5.83Z"/><path class="cls-1" d="M109.44,213.45c-4.64,0-7.69-2.78-7.69-12.05,0-6.49,2.4-10.59,7.69-10.59s7.69,4.1,7.69,10.59c0,9.31-2.98,12.05-7.69,12.05Zm0-20.05c-3.13,0-4.52,2.47-4.52,8.96,0,5.06,.97,8.5,4.52,8.5s4.52-3.44,4.52-8.5c0-6.49-1.31-8.96-4.52-8.96Z"/><path class="cls-1" d="M132.42,183.89h3.05v28.98h-2.94v-2.82h-.08c-1.31,2.55-2.63,3.4-5.22,3.4-6.76,0-6.22-9.47-6.3-11.36-.23-6.3,1.85-11.28,6.45-11.28,2.2,0,3.52,.93,4.95,2.78h.08v-9.7Zm0,17.89c0-2.94-.08-8.38-4.17-8.38-2.55,0-4.21,2.01-4.21,8.62,0,4.64,.15,8.85,4.33,8.85,3.17,0,4.06-3.98,4.06-6.41v-2.67Z"/><path class="cls-1" d="M148.07,213.45c-4.64,0-7.69-2.78-7.69-12.05,0-6.49,2.4-10.59,7.69-10.59s7.69,4.1,7.69,10.59c0,9.31-2.98,12.05-7.69,12.05Zm0-20.05c-3.13,0-4.52,2.47-4.52,8.96,0,5.06,.97,8.5,4.52,8.5s4.52-3.44,4.52-8.5c0-6.49-1.31-8.96-4.52-8.96Z"/><path class="cls-1" d="M169.43,197.14c.12-2.55-.81-3.75-3.4-3.75-2.16,0-3.4,1-3.4,3.25,0,2.78,2.28,3.13,4.37,4.02,3.09,1.39,6.18,2.16,6.18,6.18s-2.86,6.65-7.26,6.61c-1.89,.04-4.21-.62-5.33-2.24-1.28-1.7-1.2-3.13-1.2-4.6h2.9c-.12,2.63,.77,4.25,3.63,4.25,2.47,0,4.1-1,4.1-3.63,0-3.05-3.09-3.32-5.29-4.25-3.32-1.24-5.25-2.36-5.25-6.1s2.59-6.07,6.3-6.07c4.25,0,6.72,1.93,6.65,6.34h-2.98Z"/><path class="cls-1" d="M196.23,197.14c.12-2.55-.81-3.75-3.4-3.75-2.16,0-3.4,1-3.4,3.25,0,2.78,2.28,3.13,4.37,4.02,3.09,1.39,6.18,2.16,6.18,6.18s-2.86,6.65-7.26,6.61c-1.89,.04-4.21-.62-5.33-2.24-1.28-1.7-1.2-3.13-1.2-4.6h2.9c-.12,2.63,.77,4.25,3.63,4.25,2.47,0,4.1-1,4.1-3.63,0-3.05-3.09-3.32-5.29-4.25-3.32-1.24-5.25-2.36-5.25-6.1s2.59-6.07,6.3-6.07c4.25,0,6.72,1.93,6.65,6.34h-2.98Z"/><path class="cls-1" d="M217.79,212.87c-.23,.04-.46,.08-.7,.15-.31,0-.58,.04-.85,.04-1.97,0-2.74-.5-3.01-3.09h-.08c-.73,1.89-2.7,3.48-4.75,3.48-4.29,0-5.53-2.4-5.53-6.3,0-.81,.12-3.9,3.09-5.22,1.74-.77,6.07-2.4,6.45-2.7,.54-.43,.58-1.04,.58-1.85v-.62c0-2.43-.93-3.36-3.4-3.36-2.67,0-3.13,1.16-3.13,3.48v.31h-2.74v-.42c0-4.13,2.2-5.95,6.38-5.95,5.45,0,5.83,3.9,5.83,5.33v13.17c0,.5,.04,1.04,.54,1.28,.23,.04,.43,.08,.66,.08s.46-.04,.66-.04v2.24Zm-.93-28.94c-.19,2.2-1.51,4.21-3.94,4.21-.81,0-1.97-.42-2.74-.7-.85-.31-1.89-.77-2.82-.77s-1.7,.89-1.78,1.74h-1.85c.19-2.2,1.51-4.21,3.94-4.21,.81,0,1.97,.43,2.74,.7,.85,.31,1.89,.77,2.82,.77s1.7-.89,1.78-1.74h1.85Zm-4.1,17.35c-1.51,.89-3.21,1.55-4.83,2.32-1.43,.66-1.89,2.24-1.89,3.71,0,2.16,.54,3.55,3.01,3.55,1.16,0,3.71-.89,3.71-4.37v-5.22Z"/><path class="cls-1" d="M228.49,213.45c-4.64,0-7.69-2.78-7.69-12.05,0-6.49,2.4-10.59,7.69-10.59s7.69,4.1,7.69,10.59c0,9.31-2.98,12.05-7.69,12.05Zm0-20.05c-3.13,0-4.52,2.47-4.52,8.96,0,5.06,.97,8.5,4.52,8.5s4.52-3.44,4.52-8.5c0-6.49-1.31-8.96-4.52-8.96Z"/><path class="cls-1" d="M253.48,212.87h-2.78v-28.98h3.05v9.7h.08c1.2-1.93,2.59-2.78,4.48-2.78,5.45,0,6.76,5.52,6.76,9.93,0,6.1-.81,12.71-6.61,12.71-1.85,0-3.63-.62-4.91-3.13h-.08v2.55Zm4.37-2.01c3.17,0,4.06-3.32,4.06-9.12,0-2.82-.19-8.35-4.09-8.35-4.52,0-4.25,6.14-4.25,9.27s-.04,8.19,4.29,8.19Z"/><path class="cls-1" d="M282.22,205.72c.19,4.21-1.97,7.73-6.49,7.73-4.06,0-6.95-2.7-6.95-11.36,0-4.52,1.2-11.28,6.88-11.28,6.96,0,6.57,6.57,6.72,11.59h-10.43c.08,2.9-.42,8.46,3.86,8.46,2.94,0,3.75-2.7,3.55-5.14h2.86Zm-3.01-5.83c-.12-2.51,.04-6.49-3.52-6.49s-3.63,3.94-3.75,6.49h7.26Z"/><path class="cls-1" d="M290.25,212.87h-3.05v-21.48h2.94v2.74h.08c1-1.82,2.86-3.32,5.1-3.32s4.13,1.35,5.1,3.4c1.51-2.2,3.05-3.4,5.76-3.4,1.47,0,2.82,.5,3.94,1.51,1.39,1.27,1.31,3.67,1.31,5.02v15.53h-3.05v-15.72c0-2.4-.66-3.75-3.28-3.75-1.04,.04-2.09,.46-2.86,1.2-1.24,1.12-1.39,2.36-1.39,3.9v14.37h-3.05v-15.72c0-2.24-.73-3.75-3.21-3.75-1.12,0-2.2,.42-3.01,1.2-1.24,1.12-1.31,2.36-1.31,3.9v14.37Z"/><path class="cls-1" d="M340.09,212.87c-.23,.04-.46,.08-.7,.15-2.59,.12-3.55-.12-3.86-3.05h-.08c-.73,1.89-2.7,3.48-4.75,3.48-4.29,0-5.53-2.4-5.53-6.3,0-.81,.12-3.9,3.09-5.22,1.74-.77,6.07-2.4,6.45-2.7,.66-.5,.58-1.35,.58-2.47,0-2.43-.93-3.36-3.4-3.36-2.78,0-3.17,1.27-3.13,3.79h-2.74c-.15-4.44,2.05-6.37,6.38-6.37,6.37,0,5.83,5.33,5.83,5.83v12.32c0,.54-.08,1.31,.54,1.62,.43,.12,.89,.08,1.31,.04v2.24Zm-5.02-11.59c-1.51,.89-3.21,1.55-4.83,2.32-1.43,.66-1.89,2.24-1.89,3.71,0,2.16,.54,3.55,3.01,3.55,1.16,0,3.71-.89,3.71-4.37v-5.22Z"/><path class="cls-1" d="M347.46,191.39h3.59v2.59h-3.55v14.64c0,.73-.27,1.66,1.43,1.66h2.05v2.59h-3.36c-1.82,.04-3.17-.27-3.17-3.52v-15.38h-2.97v-2.59h2.97v-5.83h3.01v5.83Z"/><path class="cls-1" d="M366.97,205.72c.19,4.21-1.97,7.73-6.49,7.73-4.06,0-6.95-2.7-6.95-11.36,0-4.52,1.2-11.28,6.88-11.28,6.96,0,6.57,6.57,6.72,11.59h-10.43c.08,2.9-.42,8.46,3.86,8.46,2.94,0,3.75-2.7,3.55-5.14h2.86Zm-3.01-5.83c-.12-2.51,.04-6.49-3.52-6.49s-3.63,3.94-3.75,6.49h7.26Z"/><path class="cls-1" d="M374.81,193.74h.08c1.47-1.85,3.05-2.94,5.37-2.94,3.21,0,5.29,1.7,5.29,5.49v16.57h-3.05v-15.72c0-2.24-.73-3.75-3.21-3.75-1.12,0-2.2,.42-3.01,1.2-1.24,1.12-1.39,2.36-1.39,3.9v14.37h-3.05v-21.48h2.97v2.36Z"/><path class="cls-1" d="M401.66,183.89h3.05v28.98h-2.94v-2.82h-.08c-1.31,2.55-2.63,3.4-5.22,3.4-6.76,0-6.22-9.47-6.3-11.36-.23-6.3,1.85-11.28,6.45-11.28,2.2,0,3.52,.93,4.95,2.78h.08v-9.7Zm0,17.89c0-2.94-.08-8.38-4.17-8.38-2.55,0-4.21,2.01-4.21,8.62,0,4.64,.15,8.85,4.33,8.85,3.17,0,4.06-3.98,4.06-6.41v-2.67Z"/><path class="cls-1" d="M410.43,187.76v-3.86h3.05v3.86h-3.05Zm0,25.11v-21.48h3.05v21.48h-3.05Z"/><path class="cls-1" d="M429.55,183.89h3.05v28.98h-2.94v-2.82h-.08c-1.31,2.55-2.63,3.4-5.22,3.4-6.76,0-6.22-9.47-6.3-11.36-.23-6.3,1.85-11.28,6.45-11.28,2.2,0,3.52,.93,4.95,2.78h.08v-9.7Zm0,17.89c0-2.94-.08-8.38-4.17-8.38-2.55,0-4.21,2.01-4.21,8.62,0,4.64,.15,8.85,4.33,8.85,3.17,0,4.06-3.98,4.06-6.41v-2.67Z"/><path class="cls-1" d="M445.19,213.45c-4.64,0-7.69-2.78-7.69-12.05,0-6.49,2.4-10.59,7.69-10.59s7.69,4.1,7.69,10.59c0,9.31-2.98,12.05-7.69,12.05Zm0-20.05c-3.13,0-4.52,2.47-4.52,8.96,0,5.06,.97,8.5,4.52,8.5s4.52-3.44,4.52-8.5c0-6.49-1.31-8.96-4.52-8.96Z"/><path class="cls-1" d="M466.55,197.14c.12-2.55-.81-3.75-3.4-3.75-2.16,0-3.4,1-3.4,3.25,0,2.78,2.28,3.13,4.37,4.02,3.09,1.39,6.18,2.16,6.18,6.18s-2.86,6.65-7.26,6.61c-1.89,.04-4.21-.62-5.33-2.24-1.28-1.7-1.2-3.13-1.2-4.6h2.9c-.12,2.63,.77,4.25,3.63,4.25,2.47,0,4.1-1,4.1-3.63,0-3.05-3.09-3.32-5.29-4.25-3.32-1.24-5.25-2.36-5.25-6.1s2.59-6.07,6.3-6.07c4.25,0,6.72,1.93,6.65,6.34h-2.98Z"/></g></g></g></svg>